<svg width="35" height="35" viewBox="0 0 35 35" fill="none" xmlns="http://www.w3.org/2000/svg">
<path d="M0 8C0 3.58172 3.58172 0 8 0H27C31.4183 0 35 3.58172 35 8V27C35 31.4183 31.4183 35 27 35H8C3.58172 35 0 31.4183 0 27V8Z" fill="#0A2239" fill-opacity="0.1"/>
<path d="M20.295 18.2401H22.5872L23.5041 14.9394H20.295V13.289C20.295 12.4391 20.295 11.6386 22.1288 11.6386H23.5041V8.86601C23.2052 8.83053 22.0765 8.75049 20.8846 8.75049C18.3953 8.75049 16.6276 10.1178 16.6276 12.6288V14.9394H13.877V18.2401H16.6276V25.2542H20.295V18.2401Z" fill="#0056A6"/>
</svg>
