<svg width="35" height="35" viewBox="0 0 35 35" fill="none" xmlns="http://www.w3.org/2000/svg">
<path d="M0 8C0 3.58172 3.58172 0 8 0H27C31.4183 0 35 3.58172 35 8V27C35 31.4183 31.4183 35 27 35H8C3.58172 35 0 31.4183 0 27V8Z" fill="#0A2239" fill-opacity="0.1"/>
<path d="M13.362 10.5833C13.3617 11.0695 13.1683 11.5357 12.8244 11.8794C12.4804 12.223 12.014 12.4159 11.5277 12.4157C11.0415 12.4154 10.5753 12.2221 10.2316 11.8781C9.88799 11.5341 9.69507 11.0677 9.69531 10.5814C9.69556 10.0952 9.88894 9.62899 10.2329 9.28535C10.5769 8.9417 11.0433 8.74878 11.5296 8.74902C12.0158 8.74927 12.482 8.94265 12.8257 9.28664C13.1693 9.63063 13.3622 10.097 13.362 10.5833ZM13.417 13.7733H9.75031V25.2499H13.417V13.7733ZM19.2103 13.7733H15.562V25.2499H19.1736V19.2274C19.1736 15.8724 23.5461 15.5608 23.5461 19.2274V25.2499H27.167V17.9808C27.167 12.3249 20.6953 12.5358 19.1736 15.3133L19.2103 13.7733Z" fill="#0056A6"/>
</svg>
