<svg width="35" height="35" viewBox="0 0 35 35" fill="none" xmlns="http://www.w3.org/2000/svg">
<path d="M0 8C0 3.58172 3.58172 0 8 0H27C31.4183 0 35 3.58172 35 8V27C35 31.4183 31.4183 35 27 35H8C3.58172 35 0 31.4183 0 27V8Z" fill="#0A2239" fill-opacity="0.1"/>
<path d="M18.8481 8.75C19.7762 8.75247 20.2472 8.75742 20.6539 8.76897L20.814 8.77475C20.9988 8.78135 21.1811 8.7896 21.4014 8.7995C22.2791 8.84075 22.878 8.97934 23.4035 9.18311C23.948 9.39266 24.4067 9.67645 24.8654 10.1343C25.285 10.5466 25.6096 11.0455 25.8165 11.5962C26.0203 12.1217 26.1589 12.7206 26.2001 13.5992C26.21 13.8187 26.2183 14.001 26.2249 14.1866L26.2298 14.3467C26.2422 14.7526 26.2472 15.2236 26.2488 16.1517L26.2496 16.7672V17.8479C26.2516 18.4496 26.2453 19.0514 26.2307 19.6529L26.2257 19.813C26.2191 19.9986 26.2109 20.1809 26.201 20.4004C26.1597 21.279 26.0195 21.8771 25.8165 22.4034C25.6096 22.9541 25.285 23.453 24.8654 23.8653C24.4531 24.2849 23.9542 24.6096 23.4035 24.8165C22.878 25.0203 22.2791 25.1589 21.4014 25.2001L20.814 25.2249L20.6539 25.2298C20.2472 25.2414 19.7762 25.2471 18.8481 25.2488L18.2327 25.2496H17.1528C16.5508 25.2517 15.9488 25.2454 15.347 25.2306L15.1869 25.2257C14.9911 25.2183 14.7953 25.2097 14.5996 25.2001C13.7218 25.1589 13.1229 25.0203 12.5966 24.8165C12.0462 24.6095 11.5476 24.2848 11.1356 23.8653C10.7156 23.4531 10.3907 22.9542 10.1836 22.4034C9.97981 21.8779 9.84121 21.279 9.79997 20.4004L9.77522 19.813L9.77109 19.6529C9.75589 19.0514 9.74901 18.4496 9.75047 17.8479V16.1517C9.74819 15.55 9.75424 14.9482 9.76862 14.3467L9.77439 14.1866C9.78099 14.001 9.78924 13.8187 9.79914 13.5992C9.84039 12.7206 9.97898 12.1225 10.1827 11.5962C10.3904 11.0453 10.7159 10.5463 11.1364 10.1343C11.5482 9.71485 12.0465 9.39025 12.5966 9.18311C13.1229 8.97934 13.721 8.84075 14.5996 8.7995C14.819 8.7896 15.0022 8.78135 15.1869 8.77475L15.347 8.7698C15.9485 8.75514 16.5503 8.74882 17.152 8.75082L18.8481 8.75ZM18.0001 12.8749C16.9061 12.8749 15.8569 13.3095 15.0834 14.0831C14.3098 14.8566 13.8753 15.9058 13.8753 16.9998C13.8753 18.0938 14.3098 19.143 15.0834 19.9165C15.8569 20.6901 16.9061 21.1247 18.0001 21.1247C19.094 21.1247 20.1432 20.6901 20.9167 19.9165C21.6903 19.143 22.1248 18.0938 22.1248 16.9998C22.1248 15.9058 21.6903 14.8566 20.9167 14.0831C20.1432 13.3095 19.094 12.8749 18.0001 12.8749ZM18.0001 14.5249C18.3251 14.5248 18.6469 14.5888 18.9472 14.7131C19.2475 14.8374 19.5203 15.0197 19.7502 15.2495C19.98 15.4792 20.1624 15.752 20.2868 16.0523C20.4112 16.3526 20.4753 16.6744 20.4753 16.9994C20.4754 17.3244 20.4114 17.6462 20.2871 17.9465C20.1628 18.2468 19.9805 18.5197 19.7508 18.7496C19.521 18.9794 19.2482 19.1618 18.9479 19.2862C18.6477 19.4106 18.3259 19.4747 18.0009 19.4747C17.3445 19.4747 16.715 19.214 16.2509 18.7498C15.7867 18.2857 15.526 17.6562 15.526 16.9998C15.526 16.3434 15.7867 15.7139 16.2509 15.2498C16.715 14.7856 17.3445 14.5249 18.0009 14.5249M22.3319 11.6374C22.0584 11.6374 21.7961 11.7461 21.6027 11.9395C21.4094 12.1329 21.3007 12.3952 21.3007 12.6687C21.3007 12.9422 21.4094 13.2044 21.6027 13.3978C21.7961 13.5912 22.0584 13.6999 22.3319 13.6999C22.6054 13.6999 22.8677 13.5912 23.0611 13.3978C23.2545 13.2044 23.3631 12.9422 23.3631 12.6687C23.3631 12.3952 23.2545 12.1329 23.0611 11.9395C22.8677 11.7461 22.6054 11.6374 22.3319 11.6374Z" fill="#0056A6"/>
</svg>
