<svg width="35" height="35" viewBox="0 0 35 35" fill="none" xmlns="http://www.w3.org/2000/svg">
<path d="M0 8C0 3.58172 3.58172 0 8 0H27C31.4183 0 35 3.58172 35 8V27C35 31.4183 31.4183 35 27 35H8C3.58172 35 0 31.4183 0 27V8Z" fill="#0A2239" fill-opacity="0.1"/>
<path d="M15.8 20L21.509 17L15.8 14V20ZM28.516 12.17C28.659 12.64 28.758 13.27 28.824 14.07C28.901 14.87 28.934 15.56 28.934 16.16L29 17C29 19.19 28.824 20.8 28.516 21.83C28.241 22.73 27.603 23.31 26.613 23.56C26.096 23.69 25.15 23.78 23.698 23.84C22.268 23.91 20.959 23.94 19.749 23.94L18 24C13.391 24 10.52 23.84 9.387 23.56C8.397 23.31 7.759 22.73 7.484 21.83C7.341 21.36 7.242 20.73 7.176 19.93C7.099 19.13 7.066 18.44 7.066 17.84L7 17C7 14.81 7.176 13.2 7.484 12.17C7.759 11.27 8.397 10.69 9.387 10.44C9.904 10.31 10.85 10.22 12.302 10.16C13.732 10.09 15.041 10.06 16.251 10.06L18 10C22.609 10 25.48 10.16 26.613 10.44C27.603 10.69 28.241 11.27 28.516 12.17Z" fill="#0056A6"/>
</svg>
